<svg xmlns="http://www.w3.org/2000/svg" viewBox="0 0 823.35 300.7"><defs><style>.cls-1{fill:#f2c12e;}.cls-2{fill:#fff;}</style></defs><g id="Capa_2" data-name="Capa 2"><g id="Capa_1-2" data-name="Capa 1"><rect class="cls-1" width="100.42" height="293.82"/><path class="cls-2" d="M131.4,80q0-47.79,20.91-64.22Q172.1.43,226.79.43h18.85V41.29q0,48.87-21.47,69.62Q202.33,131.67,149,131.67H131.4Z"/><path class="cls-2" d="M131.4,154.15H149q52.63,0,75.22,24.22,21.47,23.13,21.47,73.08v42.8H226.79q-53.58,0-74.48-18.59Q131.4,256.85,131.4,208.2Z"/><rect class="cls-1" x="369.39" y="80.17" width="103.78" height="220.53"/><path class="cls-2" d="M500.05,141.57q0-61.39,68.5-61.4h26.13V190.43H500.05Z"/><path class="cls-1" d="M622.62,173.81l-.72-1a113.07,113.07,0,0,1,26.89-58.34,158.61,158.61,0,0,0,10,35.39C668.94,174.58,638.29,194.9,622.62,173.81Z"/><path class="cls-2" d="M679,289.3l-.74.27c-32.37-16.89-55.23-51.69-57.48-92.48a141.27,141.27,0,0,0,57.75,38C702.62,243.49,702.93,280.41,679,289.3Z"/><path class="cls-2" d="M743.24,98q-2.49,6.39-4.43,12.93c-12.78,43-71,36.63-75.68-8.25l-.15-1.54c24.88-19.36,56.82-25.61,86.43-16.94C747.14,88.7,745.1,93.29,743.24,98Z"/><path class="cls-1" d="M823.35,172.83l-.48.66c-26.25,35.48-79.79,11-74-34A144.25,144.25,0,0,1,764.49,90C795.19,105,817.84,135.81,823.35,172.83Z"/><path class="cls-1" d="M784.14,278.24c-23.8,19.36-54.24,26.55-83.37,19.7a142.06,142.06,0,0,0,28.72-20.05c15.78-14.16,38.49-14.2,54.24,0Z"/><path class="cls-2" d="M813.44,240.65a110.39,110.39,0,0,1-17.32,26.12l-.26-.22c-9-7.82-4.39-23.48,7.16-24.54Q808.26,241.53,813.44,240.65Z"/><path class="cls-1" d="M307.78,131.28q-39.06,0-39.07-26.06,0-13.35,9.33-19.2t28.44-5.85q19.13,0,28.21,5.85t9.09,19.26q0,13.41-8.44,19.7T307.78,131.28Z"/><rect class="cls-2" x="275.32" y="165.9" width="63.5" height="128.28"/></g></g></svg>